<?xml version="1.0" encoding="UTF-8" standalone="no"?>
<svg
   xmlns:dc="http://purl.org/dc/elements/1.1/"
   xmlns:cc="http://creativecommons.org/ns#"
   xmlns:rdf="http://www.w3.org/1999/02/22-rdf-syntax-ns#"
   xmlns:svg="http://www.w3.org/2000/svg"
   xmlns="http://www.w3.org/2000/svg"
   xmlns:sodipodi="http://sodipodi.sourceforge.net/DTD/sodipodi-0.dtd"
   xmlns:inkscape="http://www.inkscape.org/namespaces/inkscape"
   inkscape:version="1.0 (4035a4fb49, 2020-05-01)"
   sodipodi:docname="tsoha_logo.svg"
   id="svg7061"
   version="1.1"
   viewBox="0 0 218 214"
   height="75.485mm"
   width="76.8959mm">
  <metadata
     id="metadata7067">
    <rdf:RDF>
      <cc:Work
         rdf:about="">
        <dc:format>image/svg+xml</dc:format>
        <dc:type
           rdf:resource="http://purl.org/dc/dcmitype/StillImage" />
        <dc:title></dc:title>
      </cc:Work>
    </rdf:RDF>
  </metadata>
  <defs
     id="defs7065" />
  <sodipodi:namedview
     inkscape:current-layer="svg7061"
     inkscape:window-maximized="0"
     inkscape:window-y="72"
     inkscape:window-x="753"
     inkscape:cy="142.64882"
     inkscape:cx="145.31508"
     inkscape:zoom="3.5331523"
     showgrid="false"
     id="namedview7063"
     inkscape:window-height="1193"
     inkscape:window-width="1673"
     inkscape:pageshadow="2"
     inkscape:pageopacity="0"
     guidetolerance="10"
     gridtolerance="10"
     objecttolerance="10"
     borderopacity="1"
     bordercolor="#666666"
     pagecolor="#ffffff" />
  <path
     style="stroke:#e0e1dc;stroke-opacity:1;fill:#e0e1dc;fill-opacity:1"
     d="M 45.00,35.00            C 46.79,25.59 54.12,19.00 62.00,14.20              74.95,6.32 89.70,1.07 105.00,1.00              123.08,0.92 132.77,1.47 150.00,8.45              187.79,23.76 213.13,58.45 216.09,99.00              216.09,99.00 216.97,108.00 216.97,108.00              216.97,122.53 212.70,138.06 206.25,151.00              191.97,179.63 172.63,197.88 142.00,208.00              134.50,210.48 123.87,212.90 116.00,213.00              116.00,213.00 107.00,213.00 107.00,213.00              79.03,212.96 53.24,197.98 34.69,177.82              14.12,155.46 3.96,121.89 10.00,92.00              11.96,82.33 14.18,70.62 22.00,64.00              12.72,60.37 3.06,49.85 1.00,40.00              1.00,40.00 32.00,44.00 32.00,44.00              27.61,37.76 24.48,35.18 23.71,27.00              23.46,24.32 23.75,20.93 27.13,20.64              35.22,19.95 40.45,30.46 45.00,35.00 Z            M 190.00,166.00            C 201.56,156.90 211.82,128.68 212.00,114.00              212.00,114.00 212.00,100.00 212.00,100.00              211.91,92.55 209.92,84.09 207.66,77.00              198.63,48.73 177.75,24.69 150.00,13.45              120.75,1.60 75.74,1.84 53.18,27.01              48.75,31.96 46.82,38.10 44.00,44.00              54.31,41.68 58.80,22.91 72.00,28.00              63.92,30.80 49.37,38.63 53.00,49.00              56.00,45.57 58.04,42.51 62.00,39.97              69.90,34.89 84.80,34.79 92.00,41.00              79.95,40.45 71.16,37.33 60.18,45.06              57.45,46.99 55.26,49.57 53.00,52.00              49.82,48.28 48.83,48.09 44.00,48.00              44.00,48.00 28.00,48.00 28.00,48.00              22.32,47.97 10.61,46.02 6.00,47.00              13.58,53.03 19.84,60.61 30.00,62.53              37.33,63.92 42.07,62.39 49.00,61.00              40.91,70.15 32.12,66.43 22.00,65.00              22.00,65.00 15.21,88.00 15.21,88.00              11.21,106.80 12.09,126.03 19.20,144.00              21.11,148.81 27.55,162.86 32.09,164.90              33.70,165.48 34.46,165.13 36.00,164.90              36.00,164.90 33.00,160.00 33.00,160.00              37.09,163.73 37.44,164.55 43.00,164.00              40.21,156.88 34.75,152.72 29.00,148.00              29.00,148.00 41.46,154.54 41.46,154.54              41.46,154.54 43.00,154.00 43.00,154.00              43.00,154.00 45.00,156.00 45.00,156.00              44.29,147.52 42.71,144.30 37.00,138.00              37.00,138.00 45.00,149.00 45.00,149.00              45.00,149.00 47.00,147.00 47.00,147.00              47.00,147.00 50.00,154.00 50.00,154.00              50.00,154.00 52.00,141.00 52.00,141.00              52.98,145.63 54.52,150.67 58.00,154.00              58.00,154.00 66.00,135.00 66.00,135.00              66.00,135.00 66.00,159.00 66.00,159.00              66.00,159.00 88.00,157.00 88.00,157.00              87.98,151.47 86.74,139.30 85.48,134.00              84.27,128.94 81.90,125.67 81.17,119.00              80.65,114.18 81.16,104.72 76.77,101.64              70.90,97.52 64.43,108.63 57.03,104.29              56.00,103.68 54.51,102.47 53.99,101.38              52.65,98.59 57.11,93.44 58.55,91.00              62.16,84.87 62.67,81.88 61.00,75.00              68.79,79.98 75.68,72.63 80.00,79.00              80.00,79.00 84.00,78.00 84.00,78.00              84.00,78.00 85.00,81.00 85.00,81.00              85.00,81.00 91.00,82.00 91.00,82.00              91.00,82.00 90.00,85.00 90.00,85.00              90.00,85.00 96.00,85.00 96.00,85.00              96.00,85.00 94.00,87.00 94.00,87.00              94.00,87.00 94.00,88.00 94.00,88.00              94.00,88.00 101.00,91.00 101.00,91.00              101.00,91.00 98.00,93.00 98.00,93.00              98.00,93.00 104.00,96.00 104.00,96.00              104.00,96.00 102.00,98.00 102.00,98.00              106.47,99.75 108.92,101.54 114.00,100.79              119.41,99.98 123.26,95.69 131.00,95.21              137.89,94.78 141.51,98.52 145.00,99.16              148.66,99.82 151.66,97.24 156.91,100.88              168.54,108.92 168.02,136.01 154.42,138.75              152.26,139.19 149.13,137.70 147.00,137.00              148.68,131.26 150.22,120.60 148.00,115.00              147.23,123.50 143.55,126.69 143.61,130.96              143.61,130.96 147.42,143.00 147.42,143.00              148.22,147.32 145.60,153.98 144.00,158.00              144.00,158.00 162.00,160.00 162.00,160.00              162.00,151.17 161.17,149.29 165.00,141.00              165.00,141.00 167.00,161.00 167.00,161.00              169.37,145.68 181.51,131.68 191.00,120.00              181.35,136.09 177.01,144.02 171.00,162.00              171.00,162.00 175.00,161.00 175.00,161.00              175.00,161.00 178.00,163.00 178.00,163.00              178.00,163.00 183.20,148.00 183.20,148.00              183.20,148.00 189.69,134.00 189.69,134.00              189.69,134.00 195.00,123.00 195.00,123.00              195.00,123.00 190.95,139.00 190.95,139.00              190.95,139.00 182.00,165.00 182.00,165.00              182.00,165.00 186.00,165.00 186.00,165.00              186.00,165.00 193.58,145.00 193.58,145.00              194.70,142.04 194.84,139.08 198.00,138.00              198.00,138.00 205.00,123.00 205.00,123.00              205.00,123.00 196.00,149.00 196.00,149.00              196.00,149.00 190.00,166.00 190.00,166.00 Z            M 42.00,44.00            C 41.43,33.77 34.77,25.85 25.00,23.00              25.85,32.39 31.71,43.17 42.00,44.00 Z            M 55.00,59.00            C 57.07,49.36 70.53,44.08 79.00,49.00              79.00,49.00 66.00,52.14 66.00,52.14              66.00,52.14 55.00,59.00 55.00,59.00 Z            M 67.00,80.00            C 67.00,80.00 66.00,80.00 66.00,80.00              66.00,80.00 67.00,81.00 67.00,81.00              67.00,81.00 67.00,80.00 67.00,80.00 Z            M 136.00,157.00            C 137.34,156.78 138.22,156.86 139.45,156.01              142.87,153.64 145.14,143.82 143.66,140.00              142.44,136.85 139.05,134.66 139.28,131.00              139.53,126.94 146.26,120.51 146.89,113.00              147.77,102.64 139.90,96.40 130.00,97.10              121.13,97.72 119.71,103.23 112.00,103.89              97.44,105.14 94.78,90.43 81.00,83.91              77.62,82.31 69.83,79.36 66.53,81.98              65.19,83.04 62.69,89.01 61.58,91.00              59.37,94.94 58.27,96.55 57.00,101.00              57.00,101.00 60.00,104.00 60.00,104.00              63.64,102.25 72.17,96.49 75.91,97.70              80.82,99.29 83.11,107.45 83.71,112.00              83.71,112.00 84.53,123.00 84.53,123.00              84.53,123.00 88.60,133.00 88.60,133.00              90.12,138.70 91.00,149.96 91.00,156.00              91.00,156.00 96.00,156.00 96.00,156.00              96.00,156.00 95.00,130.00 95.00,130.00              95.00,130.00 115.00,130.83 115.00,130.83              115.00,130.83 125.96,129.38 125.96,129.38              125.96,129.38 134.18,137.04 134.18,137.04              134.18,137.04 139.36,145.00 139.36,145.00              139.36,145.00 136.00,157.00 136.00,157.00 Z            M 157.00,134.00            C 161.87,125.95 164.10,108.55 153.96,103.17              151.78,102.02 149.39,102.06 147.00,102.00              147.00,102.00 150.45,110.00 150.45,110.00              150.45,110.00 151.00,138.00 151.00,138.00              155.94,136.25 154.26,134.43 154.02,129.00              154.02,129.00 154.02,113.00 154.02,113.00              154.02,113.00 155.82,122.00 155.82,122.00              155.82,122.00 157.00,134.00 157.00,134.00 Z            M 127.00,130.00            C 112.85,134.71 112.24,133.00 98.00,133.00              98.00,133.00 98.96,144.00 98.96,144.00              98.96,144.00 98.96,156.00 98.96,156.00              98.96,156.00 121.00,156.00 121.00,156.00              123.17,156.00 128.87,156.24 130.61,155.43              133.87,153.91 136.28,146.31 135.31,143.00              134.14,138.98 129.86,137.30 127.00,130.00 Z            M 50.00,139.00            C 50.00,139.00 51.00,139.00 51.00,139.00              51.00,139.00 50.00,140.00 50.00,140.00              50.00,140.00 50.00,139.00 50.00,139.00 Z            M 59.00,140.00            C 59.00,140.00 60.00,140.00 60.00,140.00              60.00,140.00 59.00,141.00 59.00,141.00              59.00,141.00 59.00,140.00 59.00,140.00 Z            M 74.00,142.00            C 74.00,142.00 75.00,157.00 75.00,157.00              75.00,157.00 71.00,157.00 71.00,157.00              71.00,157.00 74.00,142.00 74.00,142.00 Z            M 58.00,143.00            C 58.00,143.00 59.00,143.00 59.00,143.00              59.00,143.00 58.00,144.00 58.00,144.00              58.00,144.00 58.00,143.00 58.00,143.00 Z            M 63.00,145.00            C 61.69,148.30 61.69,150.70 63.00,154.00              63.00,154.00 63.00,145.00 63.00,145.00 Z            M 34.00,150.00            C 34.00,150.00 33.00,150.00 33.00,150.00              33.00,150.00 34.00,151.00 34.00,151.00              34.00,151.00 34.00,150.00 34.00,150.00 Z            M 46.00,150.00            C 46.00,150.00 45.00,150.00 45.00,150.00              45.00,150.00 46.00,151.00 46.00,151.00              46.00,151.00 46.00,150.00 46.00,150.00 Z            M 37.00,152.00            C 37.00,152.00 36.00,152.00 36.00,152.00              36.00,152.00 37.00,153.00 37.00,153.00              37.00,153.00 37.00,152.00 37.00,152.00 Z            M 38.00,153.00            C 38.00,153.00 37.00,153.00 37.00,153.00              37.00,153.00 38.00,154.00 38.00,154.00              38.00,154.00 38.00,153.00 38.00,153.00 Z            M 39.00,154.00            C 39.00,154.00 38.00,154.00 38.00,154.00              38.00,154.00 39.00,155.00 39.00,155.00              39.00,155.00 39.00,154.00 39.00,154.00 Z            M 63.00,157.00            C 63.00,157.00 60.00,160.00 60.00,160.00              60.00,160.00 63.00,157.00 63.00,157.00 Z            M 56.00,160.00            C 56.00,160.00 55.00,160.00 55.00,160.00              55.00,160.00 56.00,161.00 56.00,161.00              56.00,161.00 56.00,160.00 56.00,160.00 Z            M 49.00,161.00            C 49.00,161.00 48.00,161.00 48.00,161.00              48.00,161.00 49.00,162.00 49.00,162.00              49.00,162.00 49.00,161.00 49.00,161.00 Z            M 37.00,161.00            C 37.00,161.00 41.00,163.00 41.00,163.00              41.00,163.00 37.00,161.00 37.00,161.00 Z            M 186.00,173.00            C 164.96,168.25 142.76,162.03 121.00,162.00              103.87,161.97 86.99,161.91 70.00,164.43              70.00,164.43 37.00,172.00 37.00,172.00              38.96,174.72 41.39,178.32 45.00,178.81              45.00,178.81 65.00,174.60 65.00,174.60              73.52,172.89 82.33,171.68 91.00,170.96              91.00,170.96 100.00,170.96 100.00,170.96              106.48,170.21 113.75,168.17 119.00,173.00              97.87,173.00 88.24,173.02 67.00,176.59              61.48,177.51 49.64,179.61 45.00,182.00              47.49,183.58 52.64,187.69 55.00,188.24              57.80,188.91 67.59,186.13 71.00,185.45              78.51,183.95 92.48,182.09 100.00,182.00              106.56,181.93 114.07,180.88 120.00,184.00              113.41,185.60 105.81,184.99 99.00,185.00              85.43,185.02 72.15,188.04 59.00,191.00              68.76,202.50 74.05,196.90 86.00,195.29              95.02,194.07 101.00,193.98 110.00,194.00              114.75,194.01 116.44,193.48 120.00,197.00              109.38,197.00 84.91,196.45 76.00,201.00              97.01,210.26 120.49,210.12 142.00,202.66              148.99,200.23 157.50,197.00 163.00,192.00              163.00,192.00 138.00,188.00 138.00,188.00              138.00,188.00 138.00,186.00 138.00,186.00              145.18,186.06 157.50,187.26 163.00,192.00              170.29,188.89 181.40,179.42 186.00,173.00 Z            M 190.00,166.00            C 190.00,166.00 189.00,166.00 189.00,166.00              189.00,166.00 190.00,167.00 190.00,167.00              190.00,167.00 190.00,166.00 190.00,166.00 Z            M 138.00,174.00            C 146.82,174.19 165.05,176.39 171.00,183.00              171.00,183.00 151.00,178.20 151.00,178.20              146.02,177.21 141.96,177.36 138.00,174.00 Z"
     stroke-width="1"
     stroke="black"
     fill="none"
     id="Valinta" />
</svg>
